<svg width="44" height="36" viewBox="0 0 44 36" fill="none" xmlns="http://www.w3.org/2000/svg">
<path d="M43.3455 7.40549C41.8147 7.96049 40.1702 8.33549 38.4413 8.50499C40.2252 7.63168 41.5597 6.25719 42.196 4.63799C40.5201 5.45248 38.6858 6.02579 36.773 6.33299C35.4867 5.20929 33.7829 4.46448 31.9263 4.2142C30.0696 3.96393 28.1638 4.22218 26.5049 4.94887C24.846 5.67556 23.5268 6.83004 22.7519 8.23305C21.9771 9.63606 21.7901 11.2091 22.22 12.708C18.8241 12.5685 15.502 11.8463 12.4693 10.5884C9.43657 9.33038 6.76104 7.56474 4.61633 5.40599C3.883 6.44099 3.46133 7.64099 3.46133 8.91899C3.46052 10.0695 3.80679 11.2024 4.46944 12.2171C5.1321 13.2318 6.09063 14.0971 7.26 14.736C5.90384 14.7007 4.5776 14.4009 3.39167 13.8615V13.9515C3.39153 15.5651 4.07373 17.1291 5.3225 18.378C6.57128 19.6269 8.30972 20.4839 10.2428 20.8035C8.98477 21.0821 7.66579 21.1231 6.3855 20.9235C6.93091 22.3119 7.99333 23.526 9.42401 24.3959C10.8547 25.2657 12.582 25.7478 14.3642 25.7745C11.3389 27.7176 7.60263 28.7716 3.7565 28.767C3.0752 28.7671 2.39447 28.7346 1.71783 28.6695C5.62187 30.7233 10.1665 31.8132 14.8078 31.809C30.5195 31.809 39.1087 21.162 39.1087 11.928C39.1087 11.628 39.0995 11.325 39.083 11.025C40.7537 10.0365 42.1958 8.81234 43.3418 7.40999L43.3455 7.40549Z" fill="black"/>
</svg>
