<svg width="233" height="234" viewBox="0 0 233 234" fill="none" xmlns="http://www.w3.org/2000/svg">
<g filter="url(#filter0_d_2_106)">
<ellipse cx="116.5" cy="113" rx="112.5" ry="113" fill="#B78B8B"/>
<path d="M224.5 113C224.5 172.942 176.128 221.5 116.5 221.5C56.872 221.5 8.5 172.942 8.5 113C8.5 53.0583 56.872 4.5 116.5 4.5C176.128 4.5 224.5 53.0583 224.5 113Z" stroke="url(#paint0_linear_2_106)" stroke-width="9"/>
</g>
<path d="M37.5 104V128" stroke="black" stroke-width="9" stroke-linecap="round"/>
<path d="M68 97L68 128" stroke="black" stroke-width="9" stroke-linecap="round"/>
<path d="M98 90V128" stroke="black" stroke-width="9" stroke-linecap="round"/>
<path d="M128 83L128 128" stroke="black" stroke-width="9" stroke-linecap="round"/>
<path d="M158 76V128" stroke="black" stroke-width="9" stroke-linecap="round"/>
<path d="M187 68L188 128" stroke="black" stroke-width="9" stroke-linecap="round"/>
<path d="M37.5 90L38.5103 92.4184H41.7798L39.1347 93.9131L40.145 96.3316L37.5 94.8369L34.855 96.3316L35.8653 93.9131L33.2202 92.4184H36.4897L37.5 90Z" fill="#5102F8"/>
<path d="M68.5 83L69.5103 85.4184H72.7798L70.1347 86.9131L71.145 89.3316L68.5 87.8369L65.855 89.3316L66.8653 86.9131L64.2202 85.4184H67.4897L68.5 83Z" fill="#5102F8"/>
<path d="M98.5 76L99.5103 78.4184H102.78L100.135 79.9131L101.145 82.3316L98.5 80.8369L95.855 82.3316L96.8653 79.9131L94.2202 78.4184H97.4897L98.5 76Z" fill="#5102F8"/>
<path d="M128.5 69L129.51 71.4184H132.78L130.135 72.9131L131.145 75.3316L128.5 73.8369L125.855 75.3316L126.865 72.9131L124.22 71.4184H127.49L128.5 69Z" fill="#5102F8"/>
<path d="M158.5 62L159.51 64.4184H162.78L160.135 65.9131L161.145 68.3316L158.5 66.8369L155.855 68.3316L156.865 65.9131L154.22 64.4184H157.49L158.5 62Z" fill="#5102F8"/>
<path d="M187.5 55L188.51 57.4184H191.78L189.135 58.9131L190.145 61.3316L187.5 59.8369L184.855 61.3316L185.865 58.9131L183.22 57.4184H186.49L187.5 55Z" fill="#5102F8"/>
<line x1="34.0095" y1="135.5" x2="192.009" y2="136.5" stroke="black" stroke-width="3"/>
<line x1="34.0095" y1="140.5" x2="192.009" y2="141.5" stroke="black" stroke-width="3"/>
<line x1="33.0095" y1="162.5" x2="191.009" y2="163.5" stroke="black" stroke-width="3"/>
<path d="M48.3 156.084C47.788 156.084 47.328 156.004 46.92 155.844C46.512 155.676 46.188 155.436 45.948 155.124C45.708 154.804 45.588 154.428 45.588 153.996C45.588 153.94 45.596 153.84 45.612 153.696H46.968C46.936 154.064 47.044 154.372 47.292 154.62C47.54 154.86 47.896 154.98 48.36 154.98C48.856 154.98 49.244 154.88 49.524 154.68C49.804 154.472 49.944 154.176 49.944 153.792C49.944 153.56 49.872 153.364 49.728 153.204C49.592 153.036 49.416 152.896 49.2 152.784C48.992 152.672 48.7 152.54 48.324 152.388C47.828 152.18 47.432 151.992 47.136 151.824C46.84 151.656 46.584 151.424 46.368 151.128C46.16 150.832 46.056 150.46 46.056 150.012C46.056 149.516 46.184 149.084 46.44 148.716C46.696 148.34 47.048 148.052 47.496 147.852C47.952 147.652 48.464 147.552 49.032 147.552C49.6 147.552 50.088 147.648 50.496 147.84C50.912 148.024 51.224 148.288 51.432 148.632C51.648 148.968 51.744 149.364 51.72 149.82H50.28C50.312 149.492 50.212 149.22 49.98 149.004C49.748 148.78 49.412 148.668 48.972 148.668C48.508 148.668 48.136 148.776 47.856 148.992C47.584 149.2 47.448 149.484 47.448 149.844C47.448 150.068 47.516 150.264 47.652 150.432C47.796 150.592 47.976 150.732 48.192 150.852C48.408 150.964 48.7 151.1 49.068 151.26C49.564 151.484 49.96 151.684 50.256 151.86C50.56 152.036 50.82 152.276 51.036 152.58C51.252 152.876 51.36 153.244 51.36 153.684C51.36 154.148 51.232 154.564 50.976 154.932C50.72 155.292 50.36 155.576 49.896 155.784C49.432 155.984 48.9 156.084 48.3 156.084ZM56.8156 147.66C57.6556 147.66 58.2916 147.848 58.7236 148.224C59.1556 148.6 59.3716 149.088 59.3716 149.688C59.3716 149.792 59.3556 149.948 59.3236 150.156C59.2276 150.692 58.9796 151.184 58.5796 151.632C58.1876 152.08 57.6516 152.384 56.9716 152.544L58.4236 156H56.7916L55.4716 152.664H54.4156L53.8276 156H52.4596L53.9356 147.66H56.8156ZM57.9196 150.156C57.9436 150.036 57.9556 149.92 57.9556 149.808C57.9556 149.464 57.8436 149.2 57.6196 149.016C57.4036 148.824 57.0716 148.728 56.6236 148.728H55.1116L54.6076 151.584H56.1196C56.6316 151.584 57.0396 151.456 57.3436 151.2C57.6556 150.944 57.8476 150.596 57.9196 150.156ZM67.8393 147.66C68.6153 147.66 69.2873 147.792 69.8553 148.056C70.4233 148.32 70.8553 148.7 71.1513 149.196C71.4553 149.692 71.6073 150.28 71.6073 150.96C71.6073 151.272 71.5793 151.572 71.5233 151.86C71.3713 152.708 71.0593 153.444 70.5873 154.068C70.1153 154.692 69.5153 155.172 68.7873 155.508C68.0593 155.836 67.2513 156 66.3633 156H63.6393L65.1153 147.66H67.8393ZM66.5553 154.956C67.5233 154.956 68.3153 154.68 68.9313 154.128C69.5553 153.576 69.9513 152.82 70.1193 151.86C70.1673 151.58 70.1913 151.32 70.1913 151.08C70.1913 150.344 69.9753 149.776 69.5433 149.376C69.1113 148.968 68.4793 148.764 67.6473 148.764H66.2913L65.1993 154.956H66.5553ZM74.4751 150.552C74.7471 150.152 75.0671 149.84 75.4351 149.616C75.8111 149.392 76.2271 149.28 76.6831 149.28L76.4311 150.696H76.0831C75.5551 150.696 75.1311 150.828 74.8111 151.092C74.4911 151.356 74.2671 151.812 74.1391 152.46L73.5151 156H72.1471L73.3111 149.388H74.6791L74.4751 150.552ZM80.7846 149.28C81.6086 149.28 82.2646 149.512 82.7526 149.976C83.2486 150.44 83.4966 151.064 83.4966 151.848C83.4966 152.032 83.4766 152.252 83.4366 152.508C83.4046 152.684 83.3486 152.9 83.2686 153.156H78.2166C78.2086 153.212 78.2046 153.296 78.2046 153.408C78.2046 153.88 78.3486 154.256 78.6366 154.536C78.9326 154.816 79.3166 154.956 79.7886 154.956C80.5326 154.956 81.1046 154.648 81.5046 154.032H82.9806C82.6766 154.64 82.2286 155.14 81.6366 155.532C81.0446 155.916 80.3606 156.108 79.5846 156.108C79.0326 156.108 78.5486 156 78.1326 155.784C77.7166 155.568 77.3926 155.26 77.1606 154.86C76.9286 154.452 76.8126 153.976 76.8126 153.432C76.8126 153.2 76.8366 152.952 76.8846 152.688C77.0046 152.008 77.2486 151.412 77.6166 150.9C77.9846 150.38 78.4406 149.98 78.9846 149.7C79.5366 149.42 80.1366 149.28 80.7846 149.28ZM82.0686 152.172C82.0846 152.028 82.0926 151.924 82.0926 151.86C82.0926 151.42 81.9446 151.072 81.6486 150.816C81.3606 150.56 80.9846 150.432 80.5206 150.432C80.0326 150.432 79.5926 150.588 79.2006 150.9C78.8086 151.212 78.5406 151.636 78.3966 152.172H82.0686ZM84.2908 152.664C84.4108 152 84.6508 151.412 85.0108 150.9C85.3788 150.388 85.8268 149.992 86.3548 149.712C86.8828 149.424 87.4348 149.28 88.0108 149.28C88.5308 149.28 88.9668 149.384 89.3188 149.592C89.6708 149.792 89.9348 150.044 90.1108 150.348L90.2788 149.388H91.6588L90.4948 156H89.1148L89.2948 155.016C89.0068 155.328 88.6428 155.588 88.2028 155.796C87.7708 156.004 87.2988 156.108 86.7868 156.108C86.2908 156.108 85.8468 155.996 85.4548 155.772C85.0708 155.548 84.7668 155.232 84.5428 154.824C84.3268 154.408 84.2188 153.932 84.2188 153.396C84.2188 153.156 84.2428 152.912 84.2908 152.664ZM89.7028 152.688C89.7348 152.536 89.7508 152.372 89.7508 152.196C89.7508 151.66 89.5908 151.24 89.2708 150.936C88.9588 150.624 88.5668 150.468 88.0948 150.468C87.7428 150.468 87.3988 150.556 87.0628 150.732C86.7268 150.9 86.4348 151.152 86.1868 151.488C85.9388 151.816 85.7748 152.208 85.6948 152.664C85.6628 152.816 85.6468 152.98 85.6468 153.156C85.6468 153.7 85.8028 154.132 86.1148 154.452C86.4348 154.764 86.8308 154.92 87.3028 154.92C87.6548 154.92 87.9988 154.832 88.3348 154.656C88.6708 154.48 88.9628 154.224 89.2108 153.888C89.4588 153.544 89.6228 153.144 89.7028 152.688ZM101.484 149.28C102.18 149.28 102.736 149.468 103.152 149.844C103.568 150.22 103.776 150.752 103.776 151.44C103.776 151.624 103.756 151.844 103.716 152.1L103.02 156H101.664L102.324 152.304C102.356 152.08 102.372 151.92 102.372 151.824C102.372 151.384 102.248 151.048 102 150.816C101.76 150.584 101.424 150.468 100.992 150.468C100.472 150.468 100.032 150.628 99.6716 150.948C99.3196 151.26 99.0956 151.712 98.9996 152.304L98.3396 156H96.9836L97.6436 152.304C97.6756 152.08 97.6916 151.92 97.6916 151.824C97.6916 151.384 97.5676 151.048 97.3196 150.816C97.0796 150.584 96.7436 150.468 96.3116 150.468C95.7916 150.468 95.3516 150.628 94.9916 150.948C94.6396 151.26 94.4156 151.712 94.3196 152.304V152.268L93.6596 156H92.2916L93.4556 149.388H94.8236L94.6916 150.156C94.9556 149.884 95.2716 149.672 95.6396 149.52C96.0156 149.36 96.4036 149.28 96.8036 149.28C97.3316 149.28 97.7836 149.392 98.1596 149.616C98.5436 149.84 98.8116 150.164 98.9636 150.588C99.2276 150.188 99.5916 149.872 100.056 149.64C100.52 149.4 100.996 149.28 101.484 149.28ZM106.176 154.884H109.176L108.972 156H104.388L104.592 154.884L108.372 150.504H105.36L105.552 149.388H110.136L109.944 150.504L106.176 154.884ZM116.658 148.716L116.214 151.248H119.094L118.914 152.304H116.034L115.566 154.932H118.806L118.614 156H114.006L115.482 147.648H120.09L119.898 148.716H116.658ZM124.823 149.28C125.519 149.28 126.071 149.468 126.479 149.844C126.895 150.212 127.103 150.744 127.103 151.44C127.103 151.616 127.083 151.836 127.043 152.1L126.347 156H124.991L125.651 152.304C125.683 152.08 125.699 151.92 125.699 151.824C125.699 151.384 125.575 151.048 125.327 150.816C125.087 150.584 124.751 150.468 124.319 150.468C123.799 150.468 123.359 150.628 122.999 150.948C122.647 151.26 122.423 151.712 122.327 152.304V152.268L121.667 156H120.299L121.463 149.388H122.831L122.699 150.156C122.971 149.884 123.291 149.672 123.659 149.52C124.035 149.36 124.423 149.28 124.823 149.28ZM130.012 154.164C129.996 154.276 129.988 154.348 129.988 154.38C129.988 154.548 130.04 154.672 130.144 154.752C130.248 154.824 130.42 154.86 130.66 154.86H131.5L131.296 156H130.216C129.688 156 129.284 155.896 129.004 155.688C128.724 155.472 128.584 155.132 128.584 154.668C128.584 154.492 128.6 154.324 128.632 154.164L129.28 150.504H128.5L128.692 149.388H129.484L129.772 147.744H131.152L130.864 149.388H132.46L132.268 150.504H130.66L130.012 154.164ZM136.589 149.28C137.413 149.28 138.069 149.512 138.557 149.976C139.053 150.44 139.301 151.064 139.301 151.848C139.301 152.032 139.281 152.252 139.241 152.508C139.209 152.684 139.153 152.9 139.073 153.156H134.021C134.013 153.212 134.009 153.296 134.009 153.408C134.009 153.88 134.153 154.256 134.441 154.536C134.737 154.816 135.121 154.956 135.593 154.956C136.337 154.956 136.909 154.648 137.309 154.032H138.785C138.481 154.64 138.033 155.14 137.441 155.532C136.849 155.916 136.165 156.108 135.389 156.108C134.837 156.108 134.353 156 133.937 155.784C133.521 155.568 133.197 155.26 132.965 154.86C132.733 154.452 132.617 153.976 132.617 153.432C132.617 153.2 132.641 152.952 132.689 152.688C132.809 152.008 133.053 151.412 133.421 150.9C133.789 150.38 134.245 149.98 134.789 149.7C135.341 149.42 135.941 149.28 136.589 149.28ZM137.873 152.172C137.889 152.028 137.897 151.924 137.897 151.86C137.897 151.42 137.749 151.072 137.453 150.816C137.165 150.56 136.789 150.432 136.325 150.432C135.837 150.432 135.397 150.588 135.005 150.9C134.613 151.212 134.345 151.636 134.201 152.172H137.873ZM142.292 150.552C142.564 150.152 142.884 149.84 143.252 149.616C143.628 149.392 144.044 149.28 144.5 149.28L144.248 150.696H143.9C143.372 150.696 142.948 150.828 142.628 151.092C142.308 151.356 142.084 151.812 141.956 152.46L141.332 156H139.964L141.128 149.388H142.496L142.292 150.552ZM146.933 150.36C147.221 150.056 147.581 149.8 148.013 149.592C148.453 149.384 148.925 149.28 149.429 149.28C149.933 149.28 150.381 149.388 150.773 149.604C151.165 149.82 151.469 150.128 151.685 150.528C151.901 150.928 152.009 151.396 152.009 151.932C152.009 152.164 151.985 152.408 151.937 152.664C151.817 153.328 151.573 153.924 151.205 154.452C150.845 154.972 150.401 155.38 149.873 155.676C149.353 155.964 148.805 156.108 148.229 156.108C147.725 156.108 147.293 156.008 146.933 155.808C146.581 155.6 146.305 155.344 146.105 155.04L145.385 159.144H144.017L145.733 149.388H147.101L146.933 150.36ZM150.545 152.664C150.577 152.512 150.593 152.348 150.593 152.172C150.593 151.636 150.433 151.22 150.113 150.924C149.801 150.62 149.405 150.468 148.925 150.468C148.581 150.468 148.237 150.556 147.893 150.732C147.557 150.908 147.265 151.164 147.017 151.5C146.769 151.836 146.605 152.232 146.525 152.688C146.493 152.84 146.477 153.004 146.477 153.18C146.477 153.716 146.633 154.14 146.945 154.452C147.265 154.764 147.661 154.92 148.133 154.92C148.485 154.92 148.829 154.832 149.165 154.656C149.509 154.472 149.805 154.208 150.053 153.864C150.301 153.52 150.465 153.12 150.545 152.664ZM155.03 150.552C155.302 150.152 155.622 149.84 155.99 149.616C156.366 149.392 156.782 149.28 157.238 149.28L156.986 150.696H156.638C156.11 150.696 155.686 150.828 155.366 151.092C155.046 151.356 154.822 151.812 154.694 152.46L154.07 156H152.702L153.866 149.388H155.234L155.03 150.552ZM159.323 148.512C159.107 148.512 158.931 148.444 158.795 148.308C158.659 148.172 158.591 148 158.591 147.792C158.591 147.512 158.695 147.272 158.903 147.072C159.119 146.864 159.363 146.76 159.635 146.76C159.851 146.76 160.023 146.828 160.151 146.964C160.287 147.1 160.355 147.272 160.355 147.48C160.355 147.76 160.251 148.004 160.043 148.212C159.835 148.412 159.595 148.512 159.323 148.512ZM159.839 149.388L158.675 156H157.307L158.471 149.388H159.839ZM162.907 156.108C162.451 156.108 162.035 156.032 161.659 155.88C161.283 155.72 160.987 155.5 160.771 155.22C160.555 154.932 160.447 154.604 160.447 154.236C160.447 154.172 160.455 154.084 160.471 153.972H161.803C161.771 154.276 161.863 154.528 162.079 154.728C162.295 154.928 162.599 155.028 162.991 155.028C163.375 155.028 163.691 154.96 163.939 154.824C164.187 154.688 164.311 154.488 164.311 154.224C164.311 154 164.207 153.82 163.999 153.684C163.799 153.548 163.475 153.396 163.027 153.228C162.603 153.06 162.259 152.904 161.995 152.76C161.731 152.616 161.503 152.42 161.311 152.172C161.119 151.916 161.023 151.6 161.023 151.224C161.023 150.84 161.131 150.504 161.347 150.216C161.571 149.92 161.879 149.692 162.271 149.532C162.671 149.364 163.127 149.28 163.639 149.28C164.103 149.28 164.515 149.36 164.875 149.52C165.243 149.672 165.527 149.892 165.727 150.18C165.935 150.46 166.039 150.784 166.039 151.152C166.039 151.264 166.035 151.348 166.027 151.404H164.731C164.763 151.092 164.671 150.84 164.455 150.648C164.247 150.456 163.947 150.36 163.555 150.36C163.211 150.36 162.931 150.432 162.715 150.576C162.507 150.72 162.403 150.916 162.403 151.164C162.403 151.412 162.511 151.612 162.727 151.764C162.943 151.908 163.275 152.068 163.723 152.244C164.131 152.404 164.463 152.556 164.719 152.7C164.975 152.844 165.195 153.036 165.379 153.276C165.563 153.516 165.655 153.816 165.655 154.176C165.655 154.568 165.535 154.912 165.295 155.208C165.063 155.496 164.739 155.72 164.323 155.88C163.907 156.032 163.435 156.108 162.907 156.108ZM170.913 149.28C171.737 149.28 172.393 149.512 172.881 149.976C173.377 150.44 173.625 151.064 173.625 151.848C173.625 152.032 173.605 152.252 173.565 152.508C173.533 152.684 173.477 152.9 173.397 153.156H168.345C168.337 153.212 168.333 153.296 168.333 153.408C168.333 153.88 168.477 154.256 168.765 154.536C169.061 154.816 169.445 154.956 169.917 154.956C170.661 154.956 171.233 154.648 171.633 154.032H173.109C172.805 154.64 172.357 155.14 171.765 155.532C171.173 155.916 170.489 156.108 169.713 156.108C169.161 156.108 168.677 156 168.261 155.784C167.845 155.568 167.521 155.26 167.289 154.86C167.057 154.452 166.941 153.976 166.941 153.432C166.941 153.2 166.965 152.952 167.013 152.688C167.133 152.008 167.377 151.412 167.745 150.9C168.113 150.38 168.569 149.98 169.113 149.7C169.665 149.42 170.265 149.28 170.913 149.28ZM172.197 152.172C172.213 152.028 172.221 151.924 172.221 151.86C172.221 151.42 172.073 151.072 171.777 150.816C171.489 150.56 171.113 150.432 170.649 150.432C170.161 150.432 169.721 150.588 169.329 150.9C168.937 151.212 168.669 151.636 168.525 152.172H172.197ZM176.724 156.108C176.268 156.108 175.852 156.032 175.476 155.88C175.1 155.72 174.804 155.5 174.588 155.22C174.372 154.932 174.264 154.604 174.264 154.236C174.264 154.172 174.272 154.084 174.288 153.972H175.62C175.588 154.276 175.68 154.528 175.896 154.728C176.112 154.928 176.416 155.028 176.808 155.028C177.192 155.028 177.508 154.96 177.756 154.824C178.004 154.688 178.128 154.488 178.128 154.224C178.128 154 178.024 153.82 177.816 153.684C177.616 153.548 177.292 153.396 176.844 153.228C176.42 153.06 176.076 152.904 175.812 152.76C175.548 152.616 175.32 152.42 175.128 152.172C174.936 151.916 174.84 151.6 174.84 151.224C174.84 150.84 174.948 150.504 175.164 150.216C175.388 149.92 175.696 149.692 176.088 149.532C176.488 149.364 176.944 149.28 177.456 149.28C177.92 149.28 178.332 149.36 178.692 149.52C179.06 149.672 179.344 149.892 179.544 150.18C179.752 150.46 179.856 150.784 179.856 151.152C179.856 151.264 179.852 151.348 179.844 151.404H178.548C178.58 151.092 178.488 150.84 178.272 150.648C178.064 150.456 177.764 150.36 177.372 150.36C177.028 150.36 176.748 150.432 176.532 150.576C176.324 150.72 176.22 150.916 176.22 151.164C176.22 151.412 176.328 151.612 176.544 151.764C176.76 151.908 177.092 152.068 177.54 152.244C177.948 152.404 178.28 152.556 178.536 152.7C178.792 152.844 179.012 153.036 179.196 153.276C179.38 153.516 179.472 153.816 179.472 154.176C179.472 154.568 179.352 154.912 179.112 155.208C178.88 155.496 178.556 155.72 178.14 155.88C177.724 156.032 177.252 156.108 176.724 156.108Z" fill="#D10E0E"/>
<defs>
<filter id="filter0_d_2_106" x="0" y="0" width="233" height="234" filterUnits="userSpaceOnUse" color-interpolation-filters="sRGB">
<feFlood flood-opacity="0" result="BackgroundImageFix"/>
<feColorMatrix in="SourceAlpha" type="matrix" values="0 0 0 0 0 0 0 0 0 0 0 0 0 0 0 0 0 0 127 0" result="hardAlpha"/>
<feOffset dy="4"/>
<feGaussianBlur stdDeviation="2"/>
<feComposite in2="hardAlpha" operator="out"/>
<feColorMatrix type="matrix" values="0 0 0 0 0 0 0 0 0 0 0 0 0 0 0 0 0 0 0.25 0"/>
<feBlend mode="normal" in2="BackgroundImageFix" result="effect1_dropShadow_2_106"/>
<feBlend mode="normal" in="SourceGraphic" in2="effect1_dropShadow_2_106" result="shape"/>
</filter>
<linearGradient id="paint0_linear_2_106" x1="116.5" y1="0" x2="116.5" y2="226" gradientUnits="userSpaceOnUse">
<stop stop-color="#0D22DF"/>
<stop offset="1" stop-color="#A205EC" stop-opacity="0"/>
</linearGradient>
</defs>
</svg>
